HIERARCHY
ROOT Hips
{
	OFFSET 0.000000 0.000000 0.000000
	CHANNELS 6 Xposition Yposition Zposition Xrotation Yrotation Zrotation
	JOINT LeftUpLeg_virtual
	{
		OFFSET 0.000000 0.000000 0.000000
		CHANNELS 3 Xrotation Yrotation Zrotation
		JOINT LeftUpLeg
		{
			OFFSET 13.026900 -6.336304 -1.092800
			CHANNELS 3 Xrotation Yrotation Zrotation
			JOINT LeftLeg
			{
				OFFSET 0.524474 -46.096886 9.782700
				CHANNELS 3 Xrotation Yrotation Zrotation
				JOINT LeftFoot
				{
					OFFSET -0.524474 -53.427422 -12.948200
					CHANNELS 3 Xrotation Yrotation Zrotation
					JOINT LeftToeBase
					{
						OFFSET 0.192200 -14.009700 16.364100
						CHANNELS 3 Xrotation Yrotation Zrotation
						JOINT LeftToe_End
						{
							OFFSET -1.784700 -0.561700 9.474800
							CHANNELS 3 Xrotation Yrotation Zrotation
							End Site
							{
								OFFSET 0 0 0
							}
						}
					}
				}
			}
		}
	}
	JOINT RightUpLeg_virtual
	{
		OFFSET 0.000000 0.000000 0.000000
		CHANNELS 3 Xrotation Yrotation Zrotation
		JOINT RightUpLeg
		{
			OFFSET -12.883000 -6.336304 -1.092800
			CHANNELS 3 Xrotation Yrotation Zrotation
			JOINT RightLeg
			{
				OFFSET -0.524587 -46.096825 9.782800
				CHANNELS 3 Xrotation Yrotation Zrotation
				JOINT RightFoot
				{
					OFFSET 0.524587 -53.427383 -12.948300
					CHANNELS 3 Xrotation Yrotation Zrotation
					JOINT RightToeBase
					{
						OFFSET -0.192200 -14.009700 16.364100
						CHANNELS 3 Xrotation Yrotation Zrotation
						JOINT RightToe_End
						{
							OFFSET 1.784700 -0.561700 9.474800
							CHANNELS 3 Xrotation Yrotation Zrotation
							End Site
							{
								OFFSET 0 0 0
							}
						}
					}
				}
			}
		}
	}
	JOINT Spine_virtual
	{
		OFFSET 0.000000 0.000000 0.000000
		CHANNELS 3 Xrotation Yrotation Zrotation
		JOINT Spine
		{
			OFFSET 0.072000 7.257294 -0.789700
			CHANNELS 3 Xrotation Yrotation Zrotation
			JOINT Spine1
			{
				OFFSET 0.000000 12.508769 -0.658067
				CHANNELS 3 Xrotation Yrotation Zrotation
				JOINT Spine1_split
				{
					OFFSET 0.000000 12.508769 -0.658067
					CHANNELS 3 Xrotation Yrotation Zrotation
					JOINT Spine2
					{
						OFFSET 0.000000 12.508769 -0.658067
						CHANNELS 3 Xrotation Yrotation Zrotation
						JOINT Neck_virtual
						{
							OFFSET 0.000000 0.000000 0.000000
							CHANNELS 3 Xrotation Yrotation Zrotation
							JOINT Neck
							{
								OFFSET 0.000000 14.033295 7.520400
								CHANNELS 3 Xrotation Yrotation Zrotation
								JOINT Head
								{
									OFFSET 0.000000 8.198502 5.703100
									CHANNELS 3 Xrotation Yrotation Zrotation
									JOINT HeadTop_End
									{
										OFFSET 0.000000 17.760803 13.332701
										CHANNELS 3 Xrotation Yrotation Zrotation
										End Site
										{
											OFFSET 0 0 0
										}
									}
								}
							}
						}
						JOINT LeftShoulder_virtual
						{
							OFFSET 0.000000 0.000000 0.000000
							CHANNELS 3 Xrotation Yrotation Zrotation
							JOINT LeftShoulder
							{
								OFFSET 6.292450 5.785301 -0.669000
								CHANNELS 3 Xrotation Yrotation Zrotation
								JOINT LeftShoulder_split
								{
									OFFSET 6.292450 5.785301 -0.669000
									CHANNELS 3 Xrotation Yrotation Zrotation
									JOINT LeftArm
									{
										OFFSET 13.907140 -6.093903 1.965100
										CHANNELS 3 Xrotation Yrotation Zrotation
										JOINT LeftForeArm
										{
											OFFSET 34.140198 0.000000 0.000000
											CHANNELS 3 Xrotation Yrotation Zrotation
											JOINT LeftHand
											{
												OFFSET 40.960209 0.000000 0.000000
												CHANNELS 3 Xrotation Yrotation Zrotation
												End Site
												{
													OFFSET 0 0 0
												}
											}
										}
									}
								}
							}
						}
						JOINT RightShoulder_virtual
						{
							OFFSET 0.000000 0.000000 0.000000
							CHANNELS 3 Xrotation Yrotation Zrotation
							JOINT RightShoulder
							{
								OFFSET -6.292450 5.785301 -0.669000
								CHANNELS 3 Xrotation Yrotation Zrotation
								JOINT RightShoulder_split
								{
									OFFSET -6.292450 5.785301 -0.669000
									CHANNELS 3 Xrotation Yrotation Zrotation
									JOINT RightArm
									{
										OFFSET -13.907140 -6.093903 1.965100
										CHANNELS 3 Xrotation Yrotation Zrotation
										JOINT RightForeArm
										{
											OFFSET -34.140198 0.000000 0.000000
											CHANNELS 3 Xrotation Yrotation Zrotation
											JOINT RightHand
											{
												OFFSET -40.960209 0.000000 0.000000
												CHANNELS 3 Xrotation Yrotation Zrotation
												End Site
												{
													OFFSET 0 0 0
												}
											}
										}
									}
								}
							}
						}
					}
				}
			}
		}
	}
}
MOTION
Frames: 9
Frame Time: 0.03333333
0.088269 119.495956 1.089211 0.000000 0.000000 0.000000 -4.056023 6.168402 -1.805054 -1.996250 11.136890 9.924262 8.915759 -6.497312 0.247299 -4.063204 0.511158 -6.341882 -0.000188 0.000003 0.000012 0.000000 0.000000 0.000000 -4.056023 6.168402 -1.805054 -0.436187 -5.952845 1.978954 8.138841 3.373189 -0.566678 -3.443837 0.089191 0.150865 -0.001321 0.000003 0.000001 0.000000 0.000000 0.000000 -4.056023 6.168402 -1.805054 4.903657 -0.351516 1.262097 5.814412 -0.121246 1.891503 0.000000 0.000000 0.000000 0.000000 0.000000 0.000000 -4.300226 -0.608021 -1.115062 1.348863 -1.122447 0.966616 4.180612 -0.441330 -1.260351 0.000000 0.000000 0.000000 -4.300226 -0.608021 -1.115062 1.687380 -7.781276 -3.495010 0.000000 0.000000 0.000000 -0.671929 -2.004021 -76.954211 6.346061 -10.905883 1.751781 0.000000 0.000000 0.000000 -4.300226 -0.608021 -1.115062 2.088908 10.213786 4.097142 0.000000 0.000000 0.000000 1.436092 3.709008 75.271799 15.720259 15.338530 -4.555625 0.000000 0.000000 0.000000 
0.073737 119.431740 1.173412 0.000000 0.000000 0.000000 -3.951373 5.770246 -1.850490 -2.083539 11.247217 10.031114 9.106387 -6.249066 0.199906 -4.254506 0.525360 -6.380799 -0.074485 -0.067598 0.115872 0.000000 0.000000 0.000000 -3.951373 5.770246 -1.850490 -0.715235 -5.976842 1.973229 8.423918 3.856130 -0.463082 -3.519892 0.103493 0.005056 -0.062531 -0.102872 0.024831 0.000000 0.000000 0.000000 -3.951373 5.770246 -1.850490 5.415979 -0.330488 1.229425 5.522214 -0.132480 1.904806 0.000000 0.000000 0.000000 0.000000 0.000000 0.000000 -4.333486 -0.594681 -1.023816 1.247723 -1.042278 0.952613 3.900948 -0.349568 -1.362773 0.000000 0.000000 0.000000 -4.333486 -0.594681 -1.023816 1.620307 -7.552170 -3.860862 0.000000 0.000000 0.000000 -0.751193 -2.300622 -76.607135 6.273866 -11.004184 1.438893 0.000000 0.000000 0.000000 -4.333486 -0.594681 -1.023816 1.990163 10.065643 4.383187 0.000000 0.000000 0.000000 2.016833 4.166794 74.641919 15.644903 15.971448 -4.499026 0.000000 0.000000 0.000000 
0.009501 119.325989 1.278625 0.000000 0.000000 0.000000 -3.787132 5.355054 -1.940388 -2.310323 11.290397 10.200252 9.458591 -5.928994 0.204880 -4.523308 0.549441 -6.483553 -0.140358 -0.241764 0.188848 0.000000 0.000000 0.000000 -3.787132 5.355054 -1.940388 -1.128206 -5.943048 1.998441 8.866480 4.150377 -0.316624 -3.644704 0.115316 -0.178137 -0.032968 0.009556 -0.010879 0.000000 0.000000 0.000000 -3.787132 5.355054 -1.940388 5.962509 -0.341217 1.244748 5.138955 -0.169618 1.922761 0.000000 0.000000 0.000000 0.000000 0.000000 0.000000 -4.445560 -0.615047 -0.923940 1.407160 -0.904688 0.903998 3.319787 -0.214768 -1.409141 0.000000 0.000000 0.000000 -4.445560 -0.615047 -0.923940 1.548018 -7.340912 -4.191912 0.000000 0.000000 0.000000 -0.740687 -2.457496 -76.268631 6.412175 -11.186910 1.166582 0.000000 0.000000 0.000000 -4.445560 -0.615047 -0.923940 1.962680 9.891858 4.427145 0.000000 0.000000 0.000000 2.263377 4.863577 74.267884 15.700827 15.892047 -4.313902 0.000000 0.000000 0.000000 
-0.084865 119.206001 1.409931 0.000000 0.000000 0.000000 -3.656281 4.845088 -1.991699 -2.456306 11.344207 10.340148 9.802905 -5.515446 0.233719 -4.812598 0.580860 -6.636418 -0.249998 0.013315 0.307899 0.000000 0.000000 0.000000 -3.656281 4.845088 -1.991699 -1.571030 -5.883423 2.024327 9.416308 4.557130 -0.195200 -3.801180 0.134360 -0.434889 -0.041819 0.065321 0.047820 0.000000 0.000000 0.000000 -3.656281 4.845088 -1.991699 6.553698 -0.338621 1.213011 4.747527 -0.211357 1.960678 0.000000 0.000000 0.000000 0.000000 0.000000 0.000000 -4.554507 -0.640237 -0.800481 1.568876 -0.722361 0.895328 2.918210 -0.025751 -1.532828 0.000000 0.000000 0.000000 -4.554507 -0.640237 -0.800481 1.469708 -7.170368 -4.588168 0.000000 0.000000 0.000000 -0.740860 -2.579956 -75.869017 6.765165 -11.226870 0.911220 0.000000 0.000000 0.000000 -4.554507 -0.640237 -0.800481 1.897160 9.753006 4.574660 0.000000 0.000000 0.000000 2.761358 5.469271 73.688165 15.327288 16.216708 -4.177235 0.000000 0.000000 0.000000 
-0.241812 119.084213 1.583939 0.000000 0.000000 0.000000 -3.471671 4.318309 -2.014775 -2.608695 11.453430 10.493355 10.082488 -5.139163 0.236671 -5.086935 0.614306 -6.814710 -0.335400 0.020372 0.399549 0.000000 0.000000 0.000000 -3.471671 4.318309 -2.014775 -2.059286 -5.754629 2.084366 9.984876 4.882161 -0.123167 -3.995404 0.156001 -0.715938 -0.039341 0.128297 0.110486 0.000000 0.000000 0.000000 -3.471671 4.318309 -2.014775 6.992036 -0.370288 1.145169 4.482985 -0.270837 1.988609 0.000000 0.000000 0.000000 0.000000 0.000000 0.000000 -4.526549 -0.681911 -0.685798 1.377390 -0.542953 1.012011 2.800684 0.189263 -1.797489 0.000000 0.000000 0.000000 -4.526549 -0.681911 -0.685798 1.399209 -7.017516 -4.892702 0.000000 0.000000 0.000000 -0.714868 -2.913301 -75.547070 6.798843 -11.543320 0.677545 0.000000 0.000000 0.000000 -4.526549 -0.681911 -0.685798 1.805813 9.500914 4.901583 0.000000 0.000000 0.000000 3.450763 6.546484 72.839945 15.124605 16.856104 -4.265060 0.000000 0.000000 0.000000 
-0.474455 118.972290 1.803226 0.000000 0.000000 0.000000 -3.251060 3.682879 -2.071839 -2.721707 11.570716 10.701630 10.291884 -4.679203 0.267997 -5.360703 0.657636 -7.074566 -0.410855 0.031673 0.479268 0.000000 0.000000 0.000000 -3.251060 3.682879 -2.071839 -2.520095 -5.654999 2.206945 10.463705 5.370128 0.011993 -4.160381 0.190169 -1.086569 -0.041025 0.114405 0.158246 0.000000 0.000000 0.000000 -3.251060 3.682879 -2.071839 7.368688 -0.449555 1.147388 4.195671 -0.356207 1.967418 0.000000 0.000000 0.000000 0.000000 0.000000 0.000000 -4.512927 -0.746790 -0.618005 1.450877 -0.321877 1.209873 2.507560 0.533925 -2.032754 0.000000 0.000000 0.000000 -4.512927 -0.746790 -0.618005 1.330237 -7.014778 -5.058161 0.000000 0.000000 0.000000 -0.717620 -2.720700 -75.275214 7.074257 -11.605007 0.452602 0.000000 0.000000 0.000000 -4.512927 -0.746790 -0.618005 1.705158 9.372392 5.363776 0.000000 0.000000 0.000000 4.228293 7.755411 71.923326 14.944787 17.453725 -4.429927 0.000000 0.000000 0.000000 
-0.813454 118.874306 2.088902 0.000000 0.000000 0.000000 -3.010519 2.907508 -2.104897 -2.700006 11.693898 10.912932 10.346251 -4.065306 0.331729 -5.605292 0.714553 -7.451027 -0.416889 0.128275 0.478083 0.000000 0.000000 0.000000 -3.010519 2.907508 -2.104897 -2.940198 -5.458782 2.423847 10.879745 5.818831 0.056051 -4.344907 0.230791 -1.484404 -0.009238 0.234927 0.218838 0.000000 0.000000 0.000000 -3.010519 2.907508 -2.104897 7.744052 -0.539015 1.054095 3.840519 -0.467055 2.011603 0.000000 0.000000 0.000000 0.000000 0.000000 0.000000 -4.557646 -0.839309 -0.482462 1.620484 -0.028265 1.371202 2.167861 0.870248 -2.382474 0.000000 0.000000 0.000000 -4.557646 -0.839309 -0.482462 1.271122 -6.964119 -5.284756 0.000000 0.000000 0.000000 -0.540964 -2.575039 -74.951381 7.304059 -11.784222 0.216715 0.000000 0.000000 0.000000 -4.557646 -0.839309 -0.482462 1.626676 9.215360 5.694088 0.000000 0.000000 0.000000 4.843425 8.614486 71.217706 14.997690 17.930660 -4.591849 0.000000 0.000000 0.000000 
-1.237766 118.779213 2.422409 0.000000 0.000000 0.000000 -2.701892 2.000235 -2.129281 -2.627181 11.766924 11.121868 10.312059 -3.230140 0.445961 -5.837702 0.785820 -7.945189 -0.405148 0.094223 0.459773 0.000000 0.000000 0.000000 -2.701892 2.000235 -2.129281 -3.376601 -5.207717 2.697884 11.240251 6.365134 0.091895 -4.547687 0.281756 -1.928925 0.047398 0.280682 0.267812 0.000000 0.000000 0.000000 -2.701892 2.000235 -2.129281 7.964327 -0.651745 0.949979 3.511775 -0.597220 2.053655 0.000000 0.000000 0.000000 0.000000 0.000000 0.000000 -4.568454 -0.951494 -0.347463 1.773353 0.289879 1.443775 1.885778 1.220138 -2.366383 0.000000 0.000000 0.000000 -4.568454 -0.951494 -0.347463 1.201296 -6.798043 -5.580293 0.000000 0.000000 0.000000 -0.408218 -2.466893 -74.503102 7.430862 -11.694287 -0.124050 0.000000 0.000000 0.000000 -4.568454 -0.951494 -0.347463 1.561661 9.046406 6.006821 0.000000 0.000000 0.000000 5.553020 10.016658 70.513193 14.717350 18.274157 -4.669094 0.000000 0.000000 0.000000 
-1.769218 118.675087 2.827381 0.000000 0.000000 0.000000 -2.516200 0.785384 -2.144123 -2.250702 11.836948 11.336982 10.192343 -2.110568 0.625205 -6.107433 0.883923 -8.597462 -0.416374 0.220067 0.473422 0.000000 0.000000 0.000000 -2.516200 0.785384 -2.144123 -3.681478 -4.940765 3.029717 11.611831 7.215447 0.147977 -4.743956 0.346172 -2.433296 0.059432 0.275712 0.259431 0.000000 0.000000 0.000000 -2.516200 0.785384 -2.144123 8.212379 -0.723837 0.782266 3.193792 -0.713226 2.160273 0.000000 0.000000 0.000000 0.000000 0.000000 0.000000 -4.561472 -1.049622 -0.144471 2.007926 0.716273 1.325067 1.520204 1.623137 -2.262071 0.000000 0.000000 0.000000 -4.561472 -1.049622 -0.144471 1.129406 -6.435702 -6.041999 0.000000 0.000000 0.000000 -0.121724 -2.136054 -74.015229 7.915110 -11.987324 -0.288427 0.000000 0.000000 0.000000 -4.561472 -1.049622 -0.144471 1.498374 8.841924 6.211506 0.000000 0.000000 0.000000 5.833123 10.524241 69.930263 14.372827 18.369225 -4.384860 0.000000 0.000000 0.000000 
